# xmcd
#
# Track frame offsets:
#	150
#	21695
#	41325
#	57470
#	70215
#	90382
#	104017
#	123187
#	140657
#	158477
#	179050
#	199005
#	216040
#	231945
#	253545
#
# Disc length: 3664 seconds
#
# Revision: 1
# Processed by: cddbd v1.5.1PL2 Copyright (c) Steve Scherf et al.
# Submitted via: audiograbber 1.83.01
#
DISCID=da0e4e0f
DTITLE=Music Maestro  Vince Gill's Greatest - Mm6185
DYEAR=1900
DGENRE=Karaoke
TTITLE0=Vince Gill - Look At Us
TTITLE1=Vince Gill - When Love Finds You
TTITLE2=Vince Gill - One More Last Chance
TTITLE3=Vince Gill - Liza Jane
TTITLE4=Vince Gill - Which Bridge To Cross
TTITLE5=Vince Gill - What The Cowgirls Do
TTITLE6=Vince Gill - Pocket Full Of Gold
TTITLE7=Vince Gill - Don't Let Our Love Keep Slipping
TTITLE8=Vince Gill - Tryin' To Get Over You
TTITLE9=Vince Gill - Whenever You Come Around
TTITLE10=Vince Gill - No Future In The Past
TTITLE11=Vince Gill - You Better Think Twice
TTITLE12=Vince Gill - High Lonesome Sound
TTITLE13=Vince Gill - Go Rest High On That Mountain
TTITLE14=Vince Gill - Worlds Apart
EXTD=
EXTT0=
EXTT1=
EXTT2=
EXTT3=
EXTT4=
EXTT5=
EXTT6=
EXTT7=
EXTT8=
EXTT9=
EXTT10=
EXTT11=
EXTT12=
EXTT13=
EXTT14=
PLAYORDER=
